# xmcd
#
# Track frame offsets: 
#        150
#        18138
#        36375
#        50647
#        78141
#        101169
#        120819
#        145218
#
# Disc length: 2211 seconds
#
# Revision: 0
# Processed by: cddbd v1.5.2PL0 Copyright (c) Steve Scherf et al.
# Submitted via: ExactAudioCopy v0.95a4
#
DISCID=5d08a108
DTITLE=Nic Clark, Curtis Hawkins And Bob Pellegrino - Blue
DYEAR=2014
DGENRE=Blues
TTITLE0=You Don't Have To Go
TTITLE1=Crying Won't Help You
TTITLE2=Lewis Collins
TTITLE3=Jelly Jelly
TTITLE4=Mighty Long Time
TTITLE5=Jail House Blues
TTITLE6=Walking Blues
TTITLE7=If The Four Winds Don't Change
EXTD=
EXTT0=
EXTT1=
EXTT2=
EXTT3=
EXTT4=
EXTT5=
EXTT6=
EXTT7=
PLAYORDER=
